# xmcd
#
# Track frame offsets:
#	150
#	14203
#	31618
#	48837
#	61426
#	77826
#	96630
#	111607
#	130497
#	144871
#	160687
#	177767
#	194478
#	208454
#
# Disc length: 2960 seconds
#
# Revision: 1
# Processed by: cddbd v1.5.2PL0 Copyright (c) Steve Scherf et al.
# Submitted via: EZCDAudioConverter 2.4.0.1
#
DISCID=cf0b8e0e
DTITLE=Vários - Sabadão Sertanejo 2
DYEAR=1991
DGENRE=Sertanejo
TTITLE0=Leandro and Leonardo - Não Aprendi Dizer Adeus
TTITLE1=Gian and Giovani - Olha Amor
TTITLE2=Sula Miranda - Estrada Afora
TTITLE3=Chico Rey and Paraná - Perder Você É Abraçar a Solidão
TTITLE4=Renê and Ronaldo - Cicatriz
TTITLE5=Marcelo Aguiar - Não Dá Pra Fazer Amor Sem Ter Você
TTITLE6=Cezar and Paulinho - Morto de Saudade Sua
TTITLE7=Roberta Miranda Feat. Fágner - Cabecinha No Ombro
TTITLE8=Mauricio and Mauri - Olhos Nos Olhos
TTITLE9=Juliano Cesar - Esquecer Não Dá
TTITLE10=João Paulo and Daniel - Desejo de Amar
TTITLE11=Dalvan - Te Amo Te Amo Te Amo
TTITLE12=Ruan and Rob - Dá O Seu Amor Pra Mim
TTITLE13=Milionário and Mathias - Na Segunda Feira a Noite
EXTD=
EXTT0=
EXTT1=
EXTT2=
EXTT3=
EXTT4=
EXTT5=
EXTT6=
EXTT7=
EXTT8=
EXTT9=
EXTT10=
EXTT11=
EXTT12=
EXTT13=
PLAYORDER=
